<?xml version="1.0" encoding="UTF-8" standalone="no"?>
<!-- Generator: Adobe Illustrator 25.4.1, SVG Export Plug-In . SVG Version: 6.00 Build 0)  -->

<svg
   version="1.1"
   id="Layer_1"
   x="0px"
   y="0px"
   viewBox="0 0 110.1 110.1"
   xml:space="preserve"
   sodipodi:docname="chialisp_icon_dark.svg"
   width="110.1"
   height="110.1"
   xmlns:inkscape="http://www.inkscape.org/namespaces/inkscape"
   xmlns:sodipodi="http://sodipodi.sourceforge.net/DTD/sodipodi-0.dtd"
   xmlns="http://www.w3.org/2000/svg"
   xmlns:svg="http://www.w3.org/2000/svg"><defs
   id="defs32" /><sodipodi:namedview
   id="namedview30"
   pagecolor="#505050"
   bordercolor="#ffffff"
   borderopacity="1"
   inkscape:showpageshadow="0"
   inkscape:pageopacity="0"
   inkscape:pagecheckerboard="1"
   inkscape:deskcolor="#505050"
   showgrid="false" />
<style
   type="text/css"
   id="style18">
	.st0{fill-rule:evenodd;clip-rule:evenodd;fill:#3BAC5C;}
	.st1{fill:#0D3349;}
</style>


<g
   id="g197"><g
     id="g251"
     transform="translate(-1.6704919,11.696637)"><path
       id="path0_1_"
       class="st0"
       d="m 58.161,27.572266 c -0.164629,0 -0.740833,0.08219 -1.234721,0.08219 -0.905463,0.08219 -2.304815,0.246579 -2.469444,0.328773 -0.08232,0 -0.32926,0.08219 -0.576204,0.08219 -1.810926,0.24658 -3.95111,0.986318 -5.185832,1.726057 -0.246945,0.164387 -0.493889,0.24658 -0.576204,0.24658 -0.246944,0.08219 -2.140185,1.397284 -2.798703,1.972637 -5.103517,4.191854 -7.737591,10.685117 -6.667499,16.027676 0.16463,0.657545 0.16463,0.657545 0.658519,0.328772 0.740833,-0.575352 1.399351,-0.986318 2.304814,-1.479477 0.493889,-0.328773 2.798703,-1.397285 2.963333,-1.397285 0,0 0.164629,-0.08219 0.411574,-0.164386 2.05787,-0.904126 7.90222,-2.958956 10.865553,-3.698695 0.08232,0 0.658519,-0.164386 1.152407,-0.328772 2.798703,-0.739739 3.292592,-0.904126 3.292592,-0.739739 0,0 -0.164629,0.08219 -0.329259,0.164386 -0.987778,0.328773 -3.621851,1.397285 -3.704166,1.479478 0,0 -0.08232,0.08219 -0.164629,0.08219 -0.08232,0 -0.246945,0.08219 -0.493889,0.164386 -0.246945,0.08219 -0.493889,0.164387 -0.493889,0.164387 0,0 -0.246944,0.08219 -0.576204,0.246579 -0.246944,0.164387 -0.493888,0.24658 -0.576203,0.24658 0,0 -0.329259,0.08219 -0.576204,0.24658 -0.329259,0.164386 -0.576203,0.246579 -0.658518,0.246579 -0.246945,0 -6.832128,3.452115 -8.889998,4.685013 -0.493889,0.24658 -0.905463,0.49316 -0.905463,0.49316 0,0 -0.658518,0.410966 -2.716388,1.726057 -2.304815,1.479478 -6.091295,4.191854 -8.478425,6.000104 -0.246944,0.24658 -0.576203,0.493159 -0.740833,0.575353 -2.05787,1.561671 -2.304814,1.890443 -1.152407,1.232898 2.634074,-1.397285 5.515092,-2.712376 7.572961,-3.534308 1.317037,-0.493159 2.634074,-0.904126 3.539537,-0.986319 l 0.411574,-0.08219 0.987777,0.986319 c 2.469444,2.465796 5.103518,3.698694 9.054628,4.274046 0.905463,0.164387 3.95111,0.08219 4.609629,0 0.246944,0 0.658518,-0.08219 0.987777,-0.164386 0.329259,-0.08219 0.740833,-0.164386 0.823148,-0.164386 0.08232,0 0.411574,-0.08219 0.658519,-0.164387 4.527314,-1.150705 8.396109,-3.945274 11.853331,-8.548094 0.08231,-0.08219 0.411574,-0.493159 0.658518,-0.904125 0.329259,-0.410966 0.576203,-0.821932 0.658518,-0.904125 0.08231,-0.08219 0.246945,-0.410966 0.411574,-0.575353 1.810926,-2.547989 4.28037,-6.65765 5.926666,-9.698798 0.164629,-0.328773 0.493888,-0.904126 0.658518,-1.150705 0.16463,-0.328773 0.740833,-1.397285 1.234722,-2.465796 0.493889,-1.068512 0.987778,-1.890444 0.987778,-1.972637 0.164629,-0.24658 0.08231,-0.328773 -0.576204,-0.575353 -0.08231,0 -0.576204,-0.164386 -1.152407,-0.410966 -0.576204,-0.164386 -1.152407,-0.410966 -1.399352,-0.410966 -0.905462,-0.328773 -2.387129,-0.739739 -4.198054,-1.232898 -1.563982,-0.410966 -1.975556,-0.493159 -2.551759,-0.657546 -0.329259,-0.08219 -0.658518,-0.164386 -0.740833,-0.164386 -0.08232,0 -0.329259,-0.08219 -0.576204,-0.164387 -0.658518,-0.08219 -0.905463,-0.164386 -1.481666,-0.328772 -2.2225,-0.49316 -4.11574,-0.657546 -7.326017,-0.657546 -1.317037,-0.08219 -2.634074,-0.08219 -2.716389,-0.08219"
       style="stroke-width:0.82254" /><g
       id="g23"
       transform="matrix(0.82314798,0,0,0.82193209,11.32388,10.311692)">
	<path
   class="st1"
   d="m 20.3,2.3 c 0,0.7 -0.6,2.2 -1.7,4.5 -1.1,2.3 -1.9,4.1 -2.5,5.5 -2.2,5.2 -3.8,10 -4.8,14.4 -0.9,4.3 -1.4,8.9 -1.4,13.5 0,4.3 0.4,8.5 1.2,12.5 0.8,4 2,8.1 3.6,12.1 0.8,2.2 2,4.7 3.4,7.7 1.4,2.9 2.1,4.8 2.1,5.5 0,0.7 -0.2,1.3 -0.5,1.7 -0.3,0.4 -0.7,0.6 -1.3,0.6 -1,0 -2.2,-0.5 -3.4,-1.6 C 13.7,77.6 12.3,75.9 10.7,73.5 7.3,68.4 4.7,63.1 2.9,57.6 1.2,52.1 0.3,46.3 0.3,40.2 0.3,34.6 1,29.3 2.4,24.3 3.8,19.2 6,14.3 8.9,9.6 c 2,-3.2 3.8,-5.5 5.4,-7.1 1.6,-1.6 3,-2.4 4.3,-2.4 0.5,0 0.9,0.2 1.3,0.6 0.2,0.4 0.4,1 0.4,1.6 z"
   id="path21" />
</g><g
       id="g27"
       transform="matrix(0.82314798,0,0,0.82193209,11.32388,10.311692)">
	<path
   class="st1"
   d="m 89.9,77.9 c 0,-0.7 0.6,-2.1 1.7,-4.4 1.1,-2.3 2,-4.1 2.6,-5.4 2.2,-5.3 3.8,-10.1 4.7,-14.4 1,-4.4 1.4,-8.9 1.4,-13.5 0,-4.2 -0.4,-8.4 -1.2,-12.4 -0.8,-4.1 -2,-8.1 -3.7,-12.2 C 94.5,13.4 93.4,10.9 92,7.9 90.6,5 89.9,3.1 89.9,2.4 c 0,-0.7 0.2,-1.2 0.5,-1.6 0.3,-0.5 0.7,-0.7 1.3,-0.7 1.1,0 2.2,0.5 3.5,1.6 1.2,1.1 2.7,2.8 4.3,5.1 3.5,5 6.2,10.3 7.9,15.9 1.7,5.6 2.6,11.4 2.6,17.5 0,5.6 -0.7,10.9 -2.2,16 -1.5,5.1 -3.7,10 -6.6,14.7 -2,3.2 -3.8,5.6 -5.4,7.1 -1.5,1.5 -2.9,2.3 -4.2,2.3 -0.5,0 -1,-0.2 -1.3,-0.6 -0.3,-0.5 -0.4,-1.1 -0.4,-1.8 z"
   id="path25" />
</g></g></g>
</svg>
