<?xml version="1.0" encoding="UTF-8" standalone="no"?>
<!-- Generator: Adobe Illustrator 25.4.1, SVG Export Plug-In . SVG Version: 6.00 Build 0)  -->

<svg
   version="1.1"
   id="Layer_1"
   x="0px"
   y="0px"
   viewBox="0 0 110.1 110.1"
   xml:space="preserve"
   sodipodi:docname="chialisp_icon_dark.svg"
   width="110.1"
   height="110.1"
   inkscape:export-filename="chialisp_light.svg"
   inkscape:export-xdpi="96"
   inkscape:export-ydpi="96"
   xmlns:inkscape="http://www.inkscape.org/namespaces/inkscape"
   xmlns:sodipodi="http://sodipodi.sourceforge.net/DTD/sodipodi-0.dtd"
   xmlns="http://www.w3.org/2000/svg"
   xmlns:svg="http://www.w3.org/2000/svg"><defs
   id="defs32" /><sodipodi:namedview
   id="namedview30"
   pagecolor="#505050"
   bordercolor="#ffffff"
   borderopacity="1"
   inkscape:showpageshadow="0"
   inkscape:pageopacity="0"
   inkscape:pagecheckerboard="1"
   inkscape:deskcolor="#505050"
   showgrid="false" />
<style
   type="text/css"
   id="style18">
	.st0{fill-rule:evenodd;clip-rule:evenodd;fill:#3BAC5C;}
	.st1{fill:#0D3349;}
</style>


<g
   id="g197"><g
     id="g336"
     transform="matrix(0.8228117,0,0,0.8228117,9.9187775,22.05525)">
	<path
   id="path0_1_-0"
   class="st0"
   d="m 56.6,20.9 c -0.2,0 -0.9,0.1 -1.5,0.1 -1.1,0.1 -2.8,0.3 -3,0.4 -0.1,0 -0.4,0.1 -0.7,0.1 -2.2,0.3 -4.8,1.2 -6.3,2.1 -0.3,0.2 -0.6,0.3 -0.7,0.3 -0.3,0.1 -2.6,1.7 -3.4,2.4 -6.2,5.1 -9.4,13 -8.1,19.5 0.2,0.8 0.2,0.8 0.8,0.4 0.9,-0.7 1.7,-1.2 2.8,-1.8 0.6,-0.4 3.4,-1.7 3.6,-1.7 0,0 0.2,-0.1 0.5,-0.2 2.5,-1.1 9.6,-3.6 13.2,-4.5 0.1,0 0.8,-0.2 1.4,-0.4 3.4,-0.9 4,-1.1 4,-0.9 0,0 -0.2,0.1 -0.4,0.2 -1.2,0.4 -4.4,1.7 -4.5,1.8 0,0 -0.1,0.1 -0.2,0.1 -0.1,0 -0.3,0.1 -0.6,0.2 -0.3,0.1 -0.6,0.2 -0.6,0.2 0,0 -0.3,0.1 -0.7,0.3 -0.3,0.2 -0.6,0.3 -0.7,0.3 0,0 -0.4,0.1 -0.7,0.3 -0.4,0.2 -0.7,0.3 -0.8,0.3 -0.3,0 -8.3,4.2 -10.8,5.7 -0.6,0.3 -1.1,0.6 -1.1,0.6 0,0 -0.8,0.5 -3.3,2.1 -2.8,1.8 -7.4,5.1 -10.3,7.3 -0.3,0.3 -0.7,0.6 -0.9,0.7 -2.5,1.9 -2.8,2.3 -1.4,1.5 3.2,-1.7 6.7,-3.3 9.2,-4.3 1.6,-0.6 3.2,-1.1 4.3,-1.2 l 0.5,-0.1 1.2,1.2 c 3,3 6.2,4.5 11,5.2 1.1,0.2 4.8,0.1 5.6,0 0.3,0 0.8,-0.1 1.2,-0.2 0.4,-0.1 0.9,-0.2 1,-0.2 0.1,0 0.5,-0.1 0.8,-0.2 5.5,-1.4 10.2,-4.8 14.4,-10.4 0.1,-0.1 0.5,-0.6 0.8,-1.1 0.4,-0.5 0.7,-1 0.8,-1.1 0.1,-0.1 0.3,-0.5 0.5,-0.7 2.2,-3.1 5.2,-8.1 7.2,-11.8 0.2,-0.4 0.6,-1.1 0.8,-1.4 0.2,-0.4 0.9,-1.7 1.5,-3 0.6,-1.3 1.2,-2.3 1.2,-2.4 0.2,-0.3 0.1,-0.4 -0.7,-0.7 -0.1,0 -0.7,-0.2 -1.4,-0.5 -0.7,-0.2 -1.4,-0.5 -1.7,-0.5 -1.1,-0.4 -2.9,-0.9 -5.1,-1.5 -1.9,-0.5 -2.4,-0.6 -3.1,-0.8 -0.4,-0.1 -0.8,-0.2 -0.9,-0.2 -0.1,0 -0.4,-0.1 -0.7,-0.2 C 69.8,22.1 69.5,22 68.8,21.8 66.1,21.2 63.8,21 59.9,21 58.3,20.9 56.7,20.9 56.6,20.9"
   style="fill:#ffffff" />
	<g
   id="g330">
		<path
   class="st0"
   d="m 20,2.2 c 0,0.7 -0.6,2.2 -1.7,4.5 -1.1,2.3 -1.9,4.1 -2.5,5.5 -2.2,5.2 -3.8,10 -4.8,14.4 -0.9,4.3 -1.4,8.9 -1.4,13.5 0,4.3 0.4,8.5 1.2,12.5 0.8,4 2,8.1 3.6,12.1 0.8,2.2 2,4.7 3.4,7.7 1.4,2.9 2.1,4.8 2.1,5.5 0,0.7 -0.2,1.3 -0.5,1.7 -0.3,0.4 -0.7,0.6 -1.3,0.6 -1,0 -2.2,-0.5 -3.4,-1.6 C 13.4,77.5 12,75.8 10.4,73.4 7,68.3 4.4,63 2.6,57.5 0.9,52 0,46.2 0,40.1 0,34.5 0.7,29.2 2.1,24.2 3.5,19.1 5.7,14.2 8.6,9.5 10.6,6.3 12.4,4 14,2.4 15.6,0.8 17,0 18.3,0 c 0.5,0 0.9,0.2 1.3,0.6 0.2,0.4 0.4,1 0.4,1.6 z"
   id="path328"
   style="fill:#ffffff" />
	</g>
	<g
   id="g334">
		<path
   class="st0"
   d="m 89.6,77.8 c 0,-0.7 0.6,-2.1 1.7,-4.4 1.1,-2.3 2,-4.1 2.6,-5.4 2.2,-5.3 3.8,-10.1 4.7,-14.4 1,-4.4 1.4,-8.9 1.4,-13.5 0,-4.2 -0.4,-8.4 -1.2,-12.4 C 98,23.6 96.8,19.6 95.1,15.5 94.2,13.3 93.1,10.8 91.7,7.8 90.3,4.9 89.6,3 89.6,2.3 89.6,1.6 89.8,1.1 90.1,0.7 90.4,0.2 90.8,0 91.4,0 c 1.1,0 2.2,0.5 3.5,1.6 1.2,1.1 2.7,2.8 4.3,5.1 3.5,5 6.2,10.3 7.9,15.9 1.7,5.6 2.6,11.4 2.6,17.5 0,5.6 -0.7,10.9 -2.2,16 -1.5,5.1 -3.7,10 -6.6,14.7 -2,3.2 -3.8,5.6 -5.4,7.1 -1.5,1.5 -2.9,2.3 -4.2,2.3 -0.5,0 -1,-0.2 -1.3,-0.6 -0.3,-0.5 -0.4,-1.1 -0.4,-1.8 z"
   id="path332"
   style="fill:#ffffff" />
	</g>
</g></g>
</svg>
